<svg height="100%" width="100%" id="svg" viewBox="0 0 1440 500" xmlns="http://www.w3.org/2000/svg" class="transition duration-300 ease-in-out delay-150"><defs><linearGradient id="gradient"><stop offset="5%" stop-color="#002bdcff"></stop><stop offset="95%" stop-color="#32ded4ff"></stop></linearGradient></defs><path d="M 0,500 C 0,500 0,250 0,250 C 37.467524914747955,216.27206640408153 74.93504982949591,182.54413280816306 120,191 C 165.0649501705041,199.45586719183694 217.7273255967644,250.09553517142933 275,265 C 332.2726744032356,279.90446482857067 394.1556477834465,259.07372650611967 439,237 C 483.8443522165535,214.92627349388036 511.6500832694494,191.6095588040921 564,199 C 616.3499167305506,206.3904411959079 693.2440191387559,244.48803827751198 741,240 C 788.7559808612441,235.51196172248802 807.3738401755269,188.43828808586008 851,196 C 894.6261598244731,203.56171191413992 963.2606201591373,265.7588093790478 1024,299 C 1084.7393798408627,332.2411906209522 1137.5836791879246,336.5264743979487 1178,321 C 1218.4163208120754,305.4735256020513 1246.4046630891644,270.13529302915754 1288,255 C 1329.5953369108356,239.8647069708425 1384.7976684554178,244.93235348542123 1440,250 C 1440,250 1440,500 1440,500 Z" stroke="none" stroke-width="0" fill="url(#gradient)" class="transition-all duration-300 ease-in-out delay-150"></path></svg>
