<svg height="100%" width="100%" id="svg" viewBox="0 0 1440 400" xmlns="http://www.w3.org/2000/svg" class="transition duration-300 ease-in-out delay-150"><defs><linearGradient id="gradient"><stop offset="5%" stop-color="#002bdc88"></stop><stop offset="95%" stop-color="#32ded488"></stop></linearGradient></defs><path d="M 0,400 C 0,400 0,133 0,133 C 34.88811493827487,109.99225461947184 69.77622987654973,86.98450923894367 118,93 C 166.22377012345027,99.01549076105633 227.7831954320759,134.05421766369716 288,133 C 348.2168045679241,131.94578233630284 407.0909883951466,94.79862010626769 457,97 C 506.9090116048534,99.20137989373231 547.8528509873378,140.75130191123213 590,144 C 632.1471490126622,147.24869808876787 675.4976076555023,112.19617224880383 723,103 C 770.5023923444977,93.80382775119617 822.1567183906527,110.46400909355256 867,117 C 911.8432816093473,123.53599090644744 949.875518781887,119.94779137698592 1000,113 C 1050.124481218113,106.05220862301408 1112.3412064817996,95.7448253985038 1158,109 C 1203.6587935182004,122.2551746014962 1232.7596552909145,159.0729070289989 1277,167 C 1321.2403447090855,174.9270929710011 1380.6201723545428,153.96354648550056 1440,133 C 1440,133 1440,400 1440,400 Z" stroke="none" stroke-width="0" fill="url(#gradient)" class="transition-all duration-300 ease-in-out delay-150" transform="rotate(-180 720 200)"></path><defs><linearGradient id="gradient"><stop offset="5%" stop-color="#002bdcff"></stop><stop offset="95%" stop-color="#32ded4ff"></stop></linearGradient></defs><path d="M 0,400 C 0,400 0,266 0,266 C 36.451796240979164,274.99912765338763 72.90359248195833,283.9982553067752 129,274 C 185.09640751804167,264.0017446932248 260.83742631314595,235.0061064262867 306,225 C 351.16257368685405,214.9938935737133 365.74670226545777,223.97731898807794 410,235 C 454.25329773454223,246.02268101192206 528.1757646250231,259.0846176214016 581,254 C 633.8242353749769,248.9153823785984 665.5502392344498,225.68421052631575 704,237 C 742.4497607655502,248.31578947368425 787.6232784371776,294.1785402733353 841,306 C 894.3767215628224,317.8214597266647 955.9566470168393,295.60162838034313 1003,284 C 1050.0433529831607,272.39837161965687 1082.5501334954663,271.4149462052922 1131,276 C 1179.4498665045337,280.5850537947078 1243.8428190012953,290.738586798488 1298,290 C 1352.1571809987047,289.261413201512 1396.0785904993522,277.630706600756 1440,266 C 1440,266 1440,400 1440,400 Z" stroke="none" stroke-width="0" fill="url(#gradient)" class="transition-all duration-300 ease-in-out delay-150" transform="rotate(-180 720 200)"></path></svg>
