<?xml version="1.0" encoding="UTF-8" standalone="no"?>
<!DOCTYPE svg PUBLIC "-//W3C//DTD SVG 1.1//EN"
 "http://www.w3.org/Graphics/SVG/1.1/DTD/svg11.dtd">
<!-- Generated by graphviz version 2.47.3 (20210619.1520)
 -->
<!-- Title: dependencies Pages: 1 -->
<svg width="1411pt" height="174pt"
 viewBox="0.00 0.00 1411.00 173.80" xmlns="http://www.w3.org/2000/svg" xmlns:xlink="http://www.w3.org/1999/xlink">
<g id="graph0" class="graph" transform="scale(1 1) rotate(0) translate(4 169.8)">
<title>dependencies</title>
<polygon fill="white" stroke="transparent" points="-4,4 -4,-169.8 1407,-169.8 1407,4 -4,4"/>
<text text-anchor="middle" x="701.5" y="-8.2" font-family="sans-serif" font-size="14.00">dependencies</text>
<g id="clust1" class="cluster">
<title>cluster_AdminModule</title>
<polygon fill="none" stroke="black" stroke-dasharray="1,5" points="8,-32.8 8,-157.8 1395,-157.8 1395,-32.8 8,-32.8"/>
</g>
<g id="clust2" class="cluster">
<title>cluster_AdminModule_declarations</title>
<polygon fill="none" stroke="black" points="301,-40.8 301,-92.8 1387,-92.8 1387,-40.8 301,-40.8"/>
</g>
<g id="clust9" class="cluster">
<title>cluster_AdminModule_imports</title>
<polygon fill="none" stroke="black" points="16,-40.8 16,-92.8 293,-92.8 293,-40.8 16,-40.8"/>
</g>
<!-- DashboardComponent -->
<g id="node1" class="node">
<title>DashboardComponent</title>
<polygon fill="#ffffb3" stroke="black" points="1378.97,-84.8 1237.03,-84.8 1237.03,-48.8 1378.97,-48.8 1378.97,-84.8"/>
<text text-anchor="middle" x="1308" y="-62.6" font-family="Times,serif" font-size="14.00">DashboardComponent</text>
</g>
<!-- AdminModule -->
<g id="node7" class="node">
<title>AdminModule</title>
<polygon fill="#8dd3c7" stroke="black" points="735.44,-149.8 732.44,-153.8 711.44,-153.8 708.44,-149.8 636.56,-149.8 636.56,-113.8 735.44,-113.8 735.44,-149.8"/>
<text text-anchor="middle" x="686" y="-127.6" font-family="Times,serif" font-size="14.00">AdminModule</text>
</g>
<!-- DashboardComponent&#45;&gt;AdminModule -->
<g id="edge1" class="edge">
<title>DashboardComponent&#45;&gt;AdminModule</title>
<path fill="none" stroke="black" d="M1308,-85.09C1308,-107.01 1308,-140.8 1308,-140.8 1308,-140.8 745.33,-140.8 745.33,-140.8"/>
<polygon fill="black" stroke="black" points="745.33,-137.3 735.33,-140.8 745.33,-144.3 745.33,-137.3"/>
</g>
<!-- LoginAdminComponent -->
<g id="node2" class="node">
<title>LoginAdminComponent</title>
<polygon fill="#ffffb3" stroke="black" points="1218.66,-84.8 1065.34,-84.8 1065.34,-48.8 1218.66,-48.8 1218.66,-84.8"/>
<text text-anchor="middle" x="1142" y="-62.6" font-family="Times,serif" font-size="14.00">LoginAdminComponent</text>
</g>
<!-- LoginAdminComponent&#45;&gt;AdminModule -->
<g id="edge2" class="edge">
<title>LoginAdminComponent&#45;&gt;AdminModule</title>
<path fill="none" stroke="black" d="M1142,-84.91C1142,-104.14 1142,-131.8 1142,-131.8 1142,-131.8 745.23,-131.8 745.23,-131.8"/>
<polygon fill="black" stroke="black" points="745.23,-128.3 735.23,-131.8 745.23,-135.3 745.23,-128.3"/>
</g>
<!-- ManageOrdersComponent -->
<g id="node3" class="node">
<title>ManageOrdersComponent</title>
<polygon fill="#ffffb3" stroke="black" points="1047.01,-84.8 882.99,-84.8 882.99,-48.8 1047.01,-48.8 1047.01,-84.8"/>
<text text-anchor="middle" x="965" y="-62.6" font-family="Times,serif" font-size="14.00">ManageOrdersComponent</text>
</g>
<!-- ManageOrdersComponent&#45;&gt;AdminModule -->
<g id="edge3" class="edge">
<title>ManageOrdersComponent&#45;&gt;AdminModule</title>
<path fill="none" stroke="black" d="M965,-84.83C965,-101.2 965,-122.8 965,-122.8 965,-122.8 745.24,-122.8 745.24,-122.8"/>
<polygon fill="black" stroke="black" points="745.24,-119.3 735.24,-122.8 745.24,-126.3 745.24,-119.3"/>
</g>
<!-- ManageServicesComponent -->
<g id="node4" class="node">
<title>ManageServicesComponent</title>
<polygon fill="#ffffb3" stroke="black" points="864.84,-84.8 691.16,-84.8 691.16,-48.8 864.84,-48.8 864.84,-84.8"/>
<text text-anchor="middle" x="778" y="-62.6" font-family="Times,serif" font-size="14.00">ManageServicesComponent</text>
</g>
<!-- ManageServicesComponent&#45;&gt;AdminModule -->
<g id="edge4" class="edge">
<title>ManageServicesComponent&#45;&gt;AdminModule</title>
<path fill="none" stroke="black" d="M713.15,-84.91C713.15,-84.91 713.15,-103.79 713.15,-103.79"/>
<polygon fill="black" stroke="black" points="709.65,-103.79 713.15,-113.79 716.65,-103.79 709.65,-103.79"/>
</g>
<!-- ManageUsersComponent -->
<g id="node5" class="node">
<title>ManageUsersComponent</title>
<polygon fill="#ffffb3" stroke="black" points="673.29,-84.8 514.71,-84.8 514.71,-48.8 673.29,-48.8 673.29,-84.8"/>
<text text-anchor="middle" x="594" y="-62.6" font-family="Times,serif" font-size="14.00">ManageUsersComponent</text>
</g>
<!-- ManageUsersComponent&#45;&gt;AdminModule -->
<g id="edge5" class="edge">
<title>ManageUsersComponent&#45;&gt;AdminModule</title>
<path fill="none" stroke="black" d="M654.96,-84.91C654.96,-84.91 654.96,-103.79 654.96,-103.79"/>
<polygon fill="black" stroke="black" points="651.46,-103.79 654.96,-113.79 658.46,-103.79 651.46,-103.79"/>
</g>
<!-- RegisterSubAdminComponent -->
<g id="node6" class="node">
<title>RegisterSubAdminComponent</title>
<polygon fill="#ffffb3" stroke="black" points="497.16,-84.8 308.84,-84.8 308.84,-48.8 497.16,-48.8 497.16,-84.8"/>
<text text-anchor="middle" x="403" y="-62.6" font-family="Times,serif" font-size="14.00">RegisterSubAdminComponent</text>
</g>
<!-- RegisterSubAdminComponent&#45;&gt;AdminModule -->
<g id="edge6" class="edge">
<title>RegisterSubAdminComponent&#45;&gt;AdminModule</title>
<path fill="none" stroke="black" d="M403,-84.83C403,-101.2 403,-122.8 403,-122.8 403,-122.8 626.71,-122.8 626.71,-122.8"/>
<polygon fill="black" stroke="black" points="626.71,-126.3 636.71,-122.8 626.71,-119.3 626.71,-126.3"/>
</g>
<!-- AdminRouterModule -->
<g id="node8" class="node">
<title>AdminRouterModule</title>
<polygon fill="#8dd3c7" stroke="black" points="285.04,-84.8 282.04,-88.8 261.04,-88.8 258.04,-84.8 148.96,-84.8 148.96,-48.8 285.04,-48.8 285.04,-84.8"/>
<text text-anchor="middle" x="217" y="-62.6" font-family="Times,serif" font-size="14.00">AdminRouterModule</text>
</g>
<!-- AdminRouterModule&#45;&gt;AdminModule -->
<g id="edge7" class="edge">
<title>AdminRouterModule&#45;&gt;AdminModule</title>
<path fill="none" stroke="black" d="M217,-84.91C217,-104.14 217,-131.8 217,-131.8 217,-131.8 626.7,-131.8 626.7,-131.8"/>
<polygon fill="black" stroke="black" points="626.7,-135.3 636.7,-131.8 626.7,-128.3 626.7,-135.3"/>
</g>
<!-- MaterialModule -->
<g id="node9" class="node">
<title>MaterialModule</title>
<polygon fill="#8dd3c7" stroke="black" points="130.47,-84.8 127.47,-88.8 106.47,-88.8 103.47,-84.8 23.53,-84.8 23.53,-48.8 130.47,-48.8 130.47,-84.8"/>
<text text-anchor="middle" x="77" y="-62.6" font-family="Times,serif" font-size="14.00">MaterialModule</text>
</g>
<!-- MaterialModule&#45;&gt;AdminModule -->
<g id="edge8" class="edge">
<title>MaterialModule&#45;&gt;AdminModule</title>
<path fill="none" stroke="black" d="M77,-85.09C77,-107.01 77,-140.8 77,-140.8 77,-140.8 626.68,-140.8 626.68,-140.8"/>
<polygon fill="black" stroke="black" points="626.68,-144.3 636.68,-140.8 626.68,-137.3 626.68,-144.3"/>
</g>
</g>
</svg>
