<?xml version="1.0" encoding="UTF-8" standalone="no"?>
<!DOCTYPE svg PUBLIC "-//W3C//DTD SVG 1.1//EN"
 "http://www.w3.org/Graphics/SVG/1.1/DTD/svg11.dtd">
<!-- Generated by graphviz version 2.47.3 (20210619.1520)
 -->
<!-- Title: dependencies Pages: 1 -->
<svg width="4713pt" height="315pt"
 viewBox="0.00 0.00 4713.00 314.80" xmlns="http://www.w3.org/2000/svg" xmlns:xlink="http://www.w3.org/1999/xlink">
<g id="graph0" class="graph" transform="scale(1 1) rotate(0) translate(4 310.8)">
<title>dependencies</title>
<polygon fill="white" stroke="transparent" points="-4,4 -4,-310.8 4709,-310.8 4709,4 -4,4"/>
<text text-anchor="middle" x="2352.5" y="-8.2" font-family="sans-serif" font-size="14.00">dependencies</text>
<g id="clust1" class="cluster">
<title>cluster_AdminModule</title>
<polygon fill="none" stroke="black" stroke-dasharray="1,5" points="8,-32.8 8,-160.8 1395,-160.8 1395,-32.8 8,-32.8"/>
</g>
<g id="clust2" class="cluster">
<title>cluster_AdminModule_declarations</title>
<polygon fill="none" stroke="black" points="16,-40.8 16,-92.8 1102,-92.8 1102,-40.8 16,-40.8"/>
</g>
<g id="clust9" class="cluster">
<title>cluster_AdminModule_imports</title>
<polygon fill="none" stroke="black" points="1110,-40.8 1110,-92.8 1387,-92.8 1387,-40.8 1110,-40.8"/>
</g>
<g id="clust19" class="cluster">
<title>cluster_AppModule</title>
<polygon fill="none" stroke="black" stroke-dasharray="1,5" points="1403,-100.8 1403,-298.8 4697,-298.8 4697,-100.8 1403,-100.8"/>
</g>
<g id="clust20" class="cluster">
<title>cluster_AppModule_declarations</title>
<polygon fill="none" stroke="black" points="1563,-108.8 1563,-160.8 4689,-160.8 4689,-108.8 1563,-108.8"/>
</g>
<g id="clust40" class="cluster">
<title>cluster_AppModule_imports</title>
<polygon fill="none" stroke="black" points="1411,-108.8 1411,-160.8 1555,-160.8 1555,-108.8 1411,-108.8"/>
</g>
<g id="clust42" class="cluster">
<title>cluster_AppModule_bootstrap</title>
<polygon fill="none" stroke="black" points="2952,-238.8 2952,-290.8 3076,-290.8 3076,-238.8 2952,-238.8"/>
</g>
<!-- DashboardComponent -->
<g id="node1" class="node">
<title>DashboardComponent</title>
<polygon fill="#ffffb3" stroke="black" points="1093.97,-84.8 952.03,-84.8 952.03,-48.8 1093.97,-48.8 1093.97,-84.8"/>
<text text-anchor="middle" x="1023" y="-62.6" font-family="Times,serif" font-size="14.00">DashboardComponent</text>
</g>
<!-- AdminModule -->
<g id="node7" class="node">
<title>AdminModule</title>
<polygon fill="#8dd3c7" stroke="black" points="906.44,-152.8 903.44,-156.8 882.44,-156.8 879.44,-152.8 807.56,-152.8 807.56,-116.8 906.44,-116.8 906.44,-152.8"/>
<text text-anchor="middle" x="857" y="-130.6" font-family="Times,serif" font-size="14.00">AdminModule</text>
</g>
<!-- DashboardComponent&#45;&gt;AdminModule -->
<g id="edge1" class="edge">
<title>DashboardComponent&#45;&gt;AdminModule</title>
<path fill="none" stroke="black" d="M1023,-84.82C1023,-102.17 1023,-125.8 1023,-125.8 1023,-125.8 916.36,-125.8 916.36,-125.8"/>
<polygon fill="black" stroke="black" points="916.36,-122.3 906.36,-125.8 916.36,-129.3 916.36,-122.3"/>
</g>
<!-- LoginAdminComponent -->
<g id="node2" class="node">
<title>LoginAdminComponent</title>
<polygon fill="#ffffb3" stroke="black" points="933.66,-84.8 780.34,-84.8 780.34,-48.8 933.66,-48.8 933.66,-84.8"/>
<text text-anchor="middle" x="857" y="-62.6" font-family="Times,serif" font-size="14.00">LoginAdminComponent</text>
</g>
<!-- LoginAdminComponent&#45;&gt;AdminModule -->
<g id="edge2" class="edge">
<title>LoginAdminComponent&#45;&gt;AdminModule</title>
<path fill="none" stroke="black" d="M857,-85.02C857,-85.02 857,-106.53 857,-106.53"/>
<polygon fill="black" stroke="black" points="853.5,-106.53 857,-116.53 860.5,-106.53 853.5,-106.53"/>
</g>
<!-- ManageOrdersComponent -->
<g id="node3" class="node">
<title>ManageOrdersComponent</title>
<polygon fill="#ffffb3" stroke="black" points="762.01,-84.8 597.99,-84.8 597.99,-48.8 762.01,-48.8 762.01,-84.8"/>
<text text-anchor="middle" x="680" y="-62.6" font-family="Times,serif" font-size="14.00">ManageOrdersComponent</text>
</g>
<!-- ManageOrdersComponent&#45;&gt;AdminModule -->
<g id="edge3" class="edge">
<title>ManageOrdersComponent&#45;&gt;AdminModule</title>
<path fill="none" stroke="black" d="M680,-84.83C680,-101.86 680,-124.8 680,-124.8 680,-124.8 797.7,-124.8 797.7,-124.8"/>
<polygon fill="black" stroke="black" points="797.7,-128.3 807.7,-124.8 797.7,-121.3 797.7,-128.3"/>
</g>
<!-- ManageServicesComponent -->
<g id="node4" class="node">
<title>ManageServicesComponent</title>
<polygon fill="#ffffb3" stroke="black" points="579.84,-84.8 406.16,-84.8 406.16,-48.8 579.84,-48.8 579.84,-84.8"/>
<text text-anchor="middle" x="493" y="-62.6" font-family="Times,serif" font-size="14.00">ManageServicesComponent</text>
</g>
<!-- ManageServicesComponent&#45;&gt;AdminModule -->
<g id="edge4" class="edge">
<title>ManageServicesComponent&#45;&gt;AdminModule</title>
<path fill="none" stroke="black" d="M493,-84.91C493,-104.14 493,-131.8 493,-131.8 493,-131.8 797.53,-131.8 797.53,-131.8"/>
<polygon fill="black" stroke="black" points="797.53,-135.3 807.53,-131.8 797.53,-128.3 797.53,-135.3"/>
</g>
<!-- ManageUsersComponent -->
<g id="node5" class="node">
<title>ManageUsersComponent</title>
<polygon fill="#ffffb3" stroke="black" points="388.29,-84.8 229.71,-84.8 229.71,-48.8 388.29,-48.8 388.29,-84.8"/>
<text text-anchor="middle" x="309" y="-62.6" font-family="Times,serif" font-size="14.00">ManageUsersComponent</text>
</g>
<!-- ManageUsersComponent&#45;&gt;AdminModule -->
<g id="edge5" class="edge">
<title>ManageUsersComponent&#45;&gt;AdminModule</title>
<path fill="none" stroke="black" d="M309,-84.97C309,-106.3 309,-138.8 309,-138.8 309,-138.8 797.4,-138.8 797.4,-138.8"/>
<polygon fill="black" stroke="black" points="797.4,-142.3 807.4,-138.8 797.4,-135.3 797.4,-142.3"/>
</g>
<!-- RegisterSubAdminComponent -->
<g id="node6" class="node">
<title>RegisterSubAdminComponent</title>
<polygon fill="#ffffb3" stroke="black" points="212.16,-84.8 23.84,-84.8 23.84,-48.8 212.16,-48.8 212.16,-84.8"/>
<text text-anchor="middle" x="118" y="-62.6" font-family="Times,serif" font-size="14.00">RegisterSubAdminComponent</text>
</g>
<!-- RegisterSubAdminComponent&#45;&gt;AdminModule -->
<g id="edge6" class="edge">
<title>RegisterSubAdminComponent&#45;&gt;AdminModule</title>
<path fill="none" stroke="black" d="M118,-85.12C118,-108.46 118,-145.8 118,-145.8 118,-145.8 797.65,-145.8 797.65,-145.8"/>
<polygon fill="black" stroke="black" points="797.65,-149.3 807.65,-145.8 797.65,-142.3 797.65,-149.3"/>
</g>
<!-- AppModule -->
<g id="node29" class="node">
<title>AppModule</title>
<polygon fill="#8dd3c7" stroke="black" points="3055.66,-217.8 3052.66,-221.8 3031.66,-221.8 3028.66,-217.8 2972.34,-217.8 2972.34,-181.8 3055.66,-181.8 3055.66,-217.8"/>
<text text-anchor="middle" x="3014" y="-195.6" font-family="Times,serif" font-size="14.00">AppModule</text>
</g>
<!-- AdminModule&#45;&gt;AppModule -->
<g id="edge28" class="edge">
<title>AdminModule&#45;&gt;AppModule</title>
<path fill="none" stroke="black" d="M857,-152.95C857,-176.56 857,-214.8 857,-214.8 857,-214.8 2961.88,-214.8 2961.88,-214.8"/>
<polygon fill="black" stroke="black" points="2961.88,-218.3 2971.88,-214.8 2961.88,-211.3 2961.88,-218.3"/>
</g>
<!-- AdminRouterModule -->
<g id="node8" class="node">
<title>AdminRouterModule</title>
<polygon fill="#8dd3c7" stroke="black" points="1254.04,-84.8 1251.04,-88.8 1230.04,-88.8 1227.04,-84.8 1117.96,-84.8 1117.96,-48.8 1254.04,-48.8 1254.04,-84.8"/>
<text text-anchor="middle" x="1186" y="-62.6" font-family="Times,serif" font-size="14.00">AdminRouterModule</text>
</g>
<!-- AdminRouterModule&#45;&gt;AdminModule -->
<g id="edge7" class="edge">
<title>AdminRouterModule&#45;&gt;AdminModule</title>
<path fill="none" stroke="black" d="M1186,-85.02C1186,-105.17 1186,-134.8 1186,-134.8 1186,-134.8 916.25,-134.8 916.25,-134.8"/>
<polygon fill="black" stroke="black" points="916.25,-131.3 906.25,-134.8 916.25,-138.3 916.25,-131.3"/>
</g>
<!-- MaterialModule -->
<g id="node9" class="node">
<title>MaterialModule</title>
<polygon fill="#8dd3c7" stroke="black" points="1379.47,-84.8 1376.47,-88.8 1355.47,-88.8 1352.47,-84.8 1272.53,-84.8 1272.53,-48.8 1379.47,-48.8 1379.47,-84.8"/>
<text text-anchor="middle" x="1326" y="-62.6" font-family="Times,serif" font-size="14.00">MaterialModule</text>
</g>
<!-- MaterialModule&#45;&gt;AdminModule -->
<g id="edge8" class="edge">
<title>MaterialModule&#45;&gt;AdminModule</title>
<path fill="none" stroke="black" d="M1308.17,-85.05C1308.17,-107.82 1308.17,-143.8 1308.17,-143.8 1308.17,-143.8 916.57,-143.8 916.57,-143.8"/>
<polygon fill="black" stroke="black" points="916.57,-140.3 906.57,-143.8 916.57,-147.3 916.57,-140.3"/>
</g>
<!-- MaterialModule&#45;&gt;AppModule -->
<g id="edge30" class="edge">
<title>MaterialModule&#45;&gt;AppModule</title>
<path fill="none" stroke="black" d="M1343.83,-84.87C1343.83,-123.74 1343.83,-211.8 1343.83,-211.8 1343.83,-211.8 2962.3,-211.8 2962.3,-211.8"/>
<polygon fill="black" stroke="black" points="2962.3,-215.3 2972.3,-211.8 2962.3,-208.3 2962.3,-215.3"/>
</g>
<!-- AppComponent -->
<g id="node10" class="node">
<title>AppComponent</title>
<polygon fill="#ffffb3" stroke="black" points="4680.94,-152.8 4575.06,-152.8 4575.06,-116.8 4680.94,-116.8 4680.94,-152.8"/>
<text text-anchor="middle" x="4628" y="-130.6" font-family="Times,serif" font-size="14.00">AppComponent</text>
</g>
<!-- AppComponent&#45;&gt;AppModule -->
<g id="edge9" class="edge">
<title>AppComponent&#45;&gt;AppModule</title>
<path fill="none" stroke="black" d="M4628,-152.95C4628,-176.56 4628,-214.8 4628,-214.8 4628,-214.8 3065.93,-214.8 3065.93,-214.8"/>
<polygon fill="black" stroke="black" points="3065.93,-211.3 3055.93,-214.8 3065.93,-218.3 3065.93,-211.3"/>
</g>
<!-- BoardAdminComponent -->
<g id="node11" class="node">
<title>BoardAdminComponent</title>
<polygon fill="#ffffb3" stroke="black" points="4557.43,-152.8 4402.57,-152.8 4402.57,-116.8 4557.43,-116.8 4557.43,-152.8"/>
<text text-anchor="middle" x="4480" y="-130.6" font-family="Times,serif" font-size="14.00">BoardAdminComponent</text>
</g>
<!-- BoardAdminComponent&#45;&gt;AppModule -->
<g id="edge10" class="edge">
<title>BoardAdminComponent&#45;&gt;AppModule</title>
<path fill="none" stroke="black" d="M4480,-153.05C4480,-175.82 4480,-211.8 4480,-211.8 4480,-211.8 3065.9,-211.8 3065.9,-211.8"/>
<polygon fill="black" stroke="black" points="3065.9,-208.3 3055.9,-211.8 3065.9,-215.3 3065.9,-208.3"/>
</g>
<!-- BoardModeratorComponent -->
<g id="node12" class="node">
<title>BoardModeratorComponent</title>
<polygon fill="#ffffb3" stroke="black" points="4384.13,-152.8 4209.87,-152.8 4209.87,-116.8 4384.13,-116.8 4384.13,-152.8"/>
<text text-anchor="middle" x="4297" y="-130.6" font-family="Times,serif" font-size="14.00">BoardModeratorComponent</text>
</g>
<!-- BoardModeratorComponent&#45;&gt;AppModule -->
<g id="edge11" class="edge">
<title>BoardModeratorComponent&#45;&gt;AppModule</title>
<path fill="none" stroke="black" d="M4297,-153.09C4297,-175.01 4297,-208.8 4297,-208.8 4297,-208.8 3065.96,-208.8 3065.96,-208.8"/>
<polygon fill="black" stroke="black" points="3065.96,-205.3 3055.96,-208.8 3065.96,-212.3 3065.96,-205.3"/>
</g>
<!-- BoardUserComponent -->
<g id="node13" class="node">
<title>BoardUserComponent</title>
<polygon fill="#ffffb3" stroke="black" points="4191.97,-152.8 4050.03,-152.8 4050.03,-116.8 4191.97,-116.8 4191.97,-152.8"/>
<text text-anchor="middle" x="4121" y="-130.6" font-family="Times,serif" font-size="14.00">BoardUserComponent</text>
</g>
<!-- BoardUserComponent&#45;&gt;AppModule -->
<g id="edge12" class="edge">
<title>BoardUserComponent&#45;&gt;AppModule</title>
<path fill="none" stroke="black" d="M4121,-152.83C4121,-173.57 4121,-204.8 4121,-204.8 4121,-204.8 3065.71,-204.8 3065.71,-204.8"/>
<polygon fill="black" stroke="black" points="3065.71,-201.3 3055.71,-204.8 3065.71,-208.3 3065.71,-201.3"/>
</g>
<!-- BrithdayToAgePipe -->
<g id="node14" class="node">
<title>BrithdayToAgePipe</title>
<polygon fill="#ffffb3" stroke="black" points="4032.25,-152.8 3903.75,-152.8 3903.75,-116.8 4032.25,-116.8 4032.25,-152.8"/>
<text text-anchor="middle" x="3968" y="-130.6" font-family="Times,serif" font-size="14.00">BrithdayToAgePipe</text>
</g>
<!-- BrithdayToAgePipe&#45;&gt;AppModule -->
<g id="edge13" class="edge">
<title>BrithdayToAgePipe&#45;&gt;AppModule</title>
<path fill="none" stroke="black" d="M3968,-153.11C3968,-172.95 3968,-201.8 3968,-201.8 3968,-201.8 3065.91,-201.8 3065.91,-201.8"/>
<polygon fill="black" stroke="black" points="3065.91,-198.3 3055.91,-201.8 3065.91,-205.3 3065.91,-198.3"/>
</g>
<!-- ContactUsComponent -->
<g id="node15" class="node">
<title>ContactUsComponent</title>
<polygon fill="#ffffb3" stroke="black" points="3885.43,-152.8 3744.57,-152.8 3744.57,-116.8 3885.43,-116.8 3885.43,-152.8"/>
<text text-anchor="middle" x="3815" y="-130.6" font-family="Times,serif" font-size="14.00">ContactUsComponent</text>
</g>
<!-- ContactUsComponent&#45;&gt;AppModule -->
<g id="edge14" class="edge">
<title>ContactUsComponent&#45;&gt;AppModule</title>
<path fill="none" stroke="black" d="M3815,-152.97C3815,-171.89 3815,-198.8 3815,-198.8 3815,-198.8 3065.66,-198.8 3065.66,-198.8"/>
<polygon fill="black" stroke="black" points="3065.66,-195.3 3055.66,-198.8 3065.66,-202.3 3065.66,-195.3"/>
</g>
<!-- FooterComponent -->
<g id="node16" class="node">
<title>FooterComponent</title>
<polygon fill="#ffffb3" stroke="black" points="3726.88,-152.8 3609.12,-152.8 3609.12,-116.8 3726.88,-116.8 3726.88,-152.8"/>
<text text-anchor="middle" x="3668" y="-130.6" font-family="Times,serif" font-size="14.00">FooterComponent</text>
</g>
<!-- FooterComponent&#45;&gt;AppModule -->
<g id="edge15" class="edge">
<title>FooterComponent&#45;&gt;AppModule</title>
<path fill="none" stroke="black" d="M3668,-153.1C3668,-171.07 3668,-195.8 3668,-195.8 3668,-195.8 3065.91,-195.8 3065.91,-195.8"/>
<polygon fill="black" stroke="black" points="3065.91,-192.3 3055.91,-195.8 3065.91,-199.3 3065.91,-192.3"/>
</g>
<!-- HomePageComponent -->
<g id="node17" class="node">
<title>HomePageComponent</title>
<polygon fill="#ffffb3" stroke="black" points="3591.26,-152.8 3448.74,-152.8 3448.74,-116.8 3591.26,-116.8 3591.26,-152.8"/>
<text text-anchor="middle" x="3520" y="-130.6" font-family="Times,serif" font-size="14.00">HomePageComponent</text>
</g>
<!-- HomePageComponent&#45;&gt;AppModule -->
<g id="edge16" class="edge">
<title>HomePageComponent&#45;&gt;AppModule</title>
<path fill="none" stroke="black" d="M3520,-152.84C3520,-169.53 3520,-191.8 3520,-191.8 3520,-191.8 3065.84,-191.8 3065.84,-191.8"/>
<polygon fill="black" stroke="black" points="3065.84,-188.3 3055.84,-191.8 3065.84,-195.3 3065.84,-188.3"/>
</g>
<!-- LoginComponent -->
<g id="node18" class="node">
<title>LoginComponent</title>
<polygon fill="#ffffb3" stroke="black" points="3430.28,-152.8 3315.72,-152.8 3315.72,-116.8 3430.28,-116.8 3430.28,-152.8"/>
<text text-anchor="middle" x="3373" y="-130.6" font-family="Times,serif" font-size="14.00">LoginComponent</text>
</g>
<!-- LoginComponent&#45;&gt;AppModule -->
<g id="edge17" class="edge">
<title>LoginComponent&#45;&gt;AppModule</title>
<path fill="none" stroke="black" d="M3373,-153.08C3373,-168.75 3373,-188.8 3373,-188.8 3373,-188.8 3065.88,-188.8 3065.88,-188.8"/>
<polygon fill="black" stroke="black" points="3065.88,-185.3 3055.88,-188.8 3065.88,-192.3 3065.88,-185.3"/>
</g>
<!-- NavbarComponent -->
<g id="node19" class="node">
<title>NavbarComponent</title>
<polygon fill="#ffffb3" stroke="black" points="3297.03,-152.8 3174.97,-152.8 3174.97,-116.8 3297.03,-116.8 3297.03,-152.8"/>
<text text-anchor="middle" x="3236" y="-130.6" font-family="Times,serif" font-size="14.00">NavbarComponent</text>
</g>
<!-- NavbarComponent&#45;&gt;AppModule -->
<g id="edge18" class="edge">
<title>NavbarComponent&#45;&gt;AppModule</title>
<path fill="none" stroke="black" d="M3236,-152.92C3236,-167.58 3236,-185.8 3236,-185.8 3236,-185.8 3065.76,-185.8 3065.76,-185.8"/>
<polygon fill="black" stroke="black" points="3065.76,-182.3 3055.76,-185.8 3065.76,-189.3 3065.76,-182.3"/>
</g>
<!-- ProfileComponent -->
<g id="node20" class="node">
<title>ProfileComponent</title>
<polygon fill="#ffffb3" stroke="black" points="3156.93,-152.8 3037.07,-152.8 3037.07,-116.8 3156.93,-116.8 3156.93,-152.8"/>
<text text-anchor="middle" x="3097" y="-130.6" font-family="Times,serif" font-size="14.00">ProfileComponent</text>
</g>
<!-- ProfileComponent&#45;&gt;AppModule -->
<g id="edge19" class="edge">
<title>ProfileComponent&#45;&gt;AppModule</title>
<path fill="none" stroke="black" d="M3046.56,-152.91C3046.56,-152.91 3046.56,-171.79 3046.56,-171.79"/>
<polygon fill="black" stroke="black" points="3043.06,-171.79 3046.56,-181.79 3050.06,-171.79 3043.06,-171.79"/>
</g>
<!-- QuestionAnswerComponent -->
<g id="node21" class="node">
<title>QuestionAnswerComponent</title>
<polygon fill="#ffffb3" stroke="black" points="3019.91,-152.8 2844.09,-152.8 2844.09,-116.8 3019.91,-116.8 3019.91,-152.8"/>
<text text-anchor="middle" x="2932" y="-130.6" font-family="Times,serif" font-size="14.00">QuestionAnswerComponent</text>
</g>
<!-- QuestionAnswerComponent&#45;&gt;AppModule -->
<g id="edge20" class="edge">
<title>QuestionAnswerComponent&#45;&gt;AppModule</title>
<path fill="none" stroke="black" d="M2995.94,-152.91C2995.94,-152.91 2995.94,-171.79 2995.94,-171.79"/>
<polygon fill="black" stroke="black" points="2992.44,-171.79 2995.94,-181.79 2999.44,-171.79 2992.44,-171.79"/>
</g>
<!-- RegisterComponent -->
<g id="node22" class="node">
<title>RegisterComponent</title>
<polygon fill="#ffffb3" stroke="black" points="2825.98,-152.8 2698.02,-152.8 2698.02,-116.8 2825.98,-116.8 2825.98,-152.8"/>
<text text-anchor="middle" x="2762" y="-130.6" font-family="Times,serif" font-size="14.00">RegisterComponent</text>
</g>
<!-- RegisterComponent&#45;&gt;AppModule -->
<g id="edge21" class="edge">
<title>RegisterComponent&#45;&gt;AppModule</title>
<path fill="none" stroke="black" d="M2762,-152.92C2762,-167.58 2762,-185.8 2762,-185.8 2762,-185.8 2962.1,-185.8 2962.1,-185.8"/>
<polygon fill="black" stroke="black" points="2962.1,-189.3 2972.1,-185.8 2962.1,-182.3 2962.1,-189.3"/>
</g>
<!-- RegisterWorkerComponent -->
<g id="node23" class="node">
<title>RegisterWorkerComponent</title>
<polygon fill="#ffffb3" stroke="black" points="2680.24,-152.8 2509.76,-152.8 2509.76,-116.8 2680.24,-116.8 2680.24,-152.8"/>
<text text-anchor="middle" x="2595" y="-130.6" font-family="Times,serif" font-size="14.00">RegisterWorkerComponent</text>
</g>
<!-- RegisterWorkerComponent&#45;&gt;AppModule -->
<g id="edge22" class="edge">
<title>RegisterWorkerComponent&#45;&gt;AppModule</title>
<path fill="none" stroke="black" d="M2595,-153.08C2595,-168.75 2595,-188.8 2595,-188.8 2595,-188.8 2962.29,-188.8 2962.29,-188.8"/>
<polygon fill="black" stroke="black" points="2962.29,-192.3 2972.29,-188.8 2962.29,-185.3 2962.29,-192.3"/>
</g>
<!-- RegistrationWorkerTermsComponent -->
<g id="node24" class="node">
<title>RegistrationWorkerTermsComponent</title>
<polygon fill="#ffffb3" stroke="black" points="2491.28,-152.8 2262.72,-152.8 2262.72,-116.8 2491.28,-116.8 2491.28,-152.8"/>
<text text-anchor="middle" x="2377" y="-130.6" font-family="Times,serif" font-size="14.00">RegistrationWorkerTermsComponent</text>
</g>
<!-- RegistrationWorkerTermsComponent&#45;&gt;AppModule -->
<g id="edge23" class="edge">
<title>RegistrationWorkerTermsComponent&#45;&gt;AppModule</title>
<path fill="none" stroke="black" d="M2377,-152.84C2377,-169.53 2377,-191.8 2377,-191.8 2377,-191.8 2962.2,-191.8 2962.2,-191.8"/>
<polygon fill="black" stroke="black" points="2962.2,-195.3 2972.2,-191.8 2962.2,-188.3 2962.2,-195.3"/>
</g>
<!-- SearchWorkerComponent -->
<g id="node25" class="node">
<title>SearchWorkerComponent</title>
<polygon fill="#ffffb3" stroke="black" points="2245.17,-152.8 2082.83,-152.8 2082.83,-116.8 2245.17,-116.8 2245.17,-152.8"/>
<text text-anchor="middle" x="2164" y="-130.6" font-family="Times,serif" font-size="14.00">SearchWorkerComponent</text>
</g>
<!-- SearchWorkerComponent&#45;&gt;AppModule -->
<g id="edge24" class="edge">
<title>SearchWorkerComponent&#45;&gt;AppModule</title>
<path fill="none" stroke="black" d="M2164,-153.1C2164,-171.07 2164,-195.8 2164,-195.8 2164,-195.8 2962.14,-195.8 2962.14,-195.8"/>
<polygon fill="black" stroke="black" points="2962.14,-199.3 2972.14,-195.8 2962.14,-192.3 2962.14,-199.3"/>
</g>
<!-- ServiceCardListComponent -->
<g id="node26" class="node">
<title>ServiceCardListComponent</title>
<polygon fill="#ffffb3" stroke="black" points="2065.3,-152.8 1892.7,-152.8 1892.7,-116.8 2065.3,-116.8 2065.3,-152.8"/>
<text text-anchor="middle" x="1979" y="-130.6" font-family="Times,serif" font-size="14.00">ServiceCardListComponent</text>
</g>
<!-- ServiceCardListComponent&#45;&gt;AppModule -->
<g id="edge25" class="edge">
<title>ServiceCardListComponent&#45;&gt;AppModule</title>
<path fill="none" stroke="black" d="M1979,-152.97C1979,-171.89 1979,-198.8 1979,-198.8 1979,-198.8 2962.14,-198.8 2962.14,-198.8"/>
<polygon fill="black" stroke="black" points="2962.14,-202.3 2972.14,-198.8 2962.14,-195.3 2962.14,-202.3"/>
</g>
<!-- WhoUsComponent -->
<g id="node27" class="node">
<title>WhoUsComponent</title>
<polygon fill="#ffffb3" stroke="black" points="1875.1,-152.8 1750.9,-152.8 1750.9,-116.8 1875.1,-116.8 1875.1,-152.8"/>
<text text-anchor="middle" x="1813" y="-130.6" font-family="Times,serif" font-size="14.00">WhoUsComponent</text>
</g>
<!-- WhoUsComponent&#45;&gt;AppModule -->
<g id="edge26" class="edge">
<title>WhoUsComponent&#45;&gt;AppModule</title>
<path fill="none" stroke="black" d="M1813,-153.11C1813,-172.95 1813,-201.8 1813,-201.8 1813,-201.8 2962.31,-201.8 2962.31,-201.8"/>
<polygon fill="black" stroke="black" points="2962.31,-205.3 2972.31,-201.8 2962.31,-198.3 2962.31,-205.3"/>
</g>
<!-- WorkerProfileComponent -->
<g id="node28" class="node">
<title>WorkerProfileComponent</title>
<polygon fill="#ffffb3" stroke="black" points="1733.18,-152.8 1570.82,-152.8 1570.82,-116.8 1733.18,-116.8 1733.18,-152.8"/>
<text text-anchor="middle" x="1652" y="-130.6" font-family="Times,serif" font-size="14.00">WorkerProfileComponent</text>
</g>
<!-- WorkerProfileComponent&#45;&gt;AppModule -->
<g id="edge27" class="edge">
<title>WorkerProfileComponent&#45;&gt;AppModule</title>
<path fill="none" stroke="black" d="M1652,-152.83C1652,-173.57 1652,-204.8 1652,-204.8 1652,-204.8 2962.12,-204.8 2962.12,-204.8"/>
<polygon fill="black" stroke="black" points="2962.12,-208.3 2972.12,-204.8 2962.12,-201.3 2962.12,-208.3"/>
</g>
<!-- AppComponent  -->
<g id="node31" class="node">
<title>AppComponent </title>
<polygon fill="#80b1d3" stroke="black" points="3068.44,-282.8 2959.56,-282.8 2959.56,-246.8 3068.44,-246.8 3068.44,-282.8"/>
<text text-anchor="middle" x="3014" y="-260.6" font-family="Times,serif" font-size="14.00">AppComponent </text>
</g>
<!-- AppModule&#45;&gt;AppComponent  -->
<g id="edge31" class="edge">
<title>AppModule&#45;&gt;AppComponent </title>
<path fill="none" stroke="black" stroke-dasharray="1,5" d="M3014,-217.91C3014,-217.91 3014,-236.79 3014,-236.79"/>
<polygon fill="black" stroke="black" points="3010.5,-236.79 3014,-246.79 3017.5,-236.79 3010.5,-236.79"/>
</g>
<!-- AppRoutingModule -->
<g id="node30" class="node">
<title>AppRoutingModule</title>
<polygon fill="#8dd3c7" stroke="black" points="1547.27,-152.8 1544.27,-156.8 1523.27,-156.8 1520.27,-152.8 1418.73,-152.8 1418.73,-116.8 1547.27,-116.8 1547.27,-152.8"/>
<text text-anchor="middle" x="1483" y="-130.6" font-family="Times,serif" font-size="14.00">AppRoutingModule</text>
</g>
<!-- AppRoutingModule&#45;&gt;AppModule -->
<g id="edge29" class="edge">
<title>AppRoutingModule&#45;&gt;AppModule</title>
<path fill="none" stroke="black" d="M1483,-153.09C1483,-175.01 1483,-208.8 1483,-208.8 1483,-208.8 2962.26,-208.8 2962.26,-208.8"/>
<polygon fill="black" stroke="black" points="2962.26,-212.3 2972.26,-208.8 2962.26,-205.3 2962.26,-212.3"/>
</g>
</g>
</svg>
